# xmcd
#
# Track frame offsets:
#	150
#	15085
#	29762
#	46687
#	63932
#	79057
#	92837
#	107975
#	124462
#	137000
#	152417
#	167412
#
# Disc length: 2474 seconds
#
# Revision: 1
# Processed by: cddbd v1.5.1PL0 Copyright (c) Steve Scherf et al.
# Submitted via: audiograbber 1.83.01
#
DISCID=8e09a80c
DTITLE=Roy Etzel - Jubiläum in Gold
DYEAR=1900
DGENRE=Instrumental
TTITLE0=Ave, Ave Maria
TTITLE1=Sing Amen In His Name
TTITLE2=Atlantis
TTITLE3=Monopoly
TTITLE4=Ein Herz und eine Seele 
TTITLE5=Hazienda
TTITLE6=Jubiläumsmelodie
TTITLE7=Golden Great Melody
TTITLE8=Trumpet Pearls
TTITLE9=Via Mala
TTITLE10=Crazy Man Blow
TTITLE11=Armada
EXTD=
EXTT0=
EXTT1=
EXTT2=
EXTT3=
EXTT4=
EXTT5=
EXTT6=
EXTT7=
EXTT8=
EXTT9=
EXTT10=
EXTT11=
PLAYORDER=
